<?xml version="1.0" encoding="utf-8"?>
<!-- Generator: Adobe Illustrator 25.0.1, SVG Export Plug-In . SVG Version: 6.00 Build 0)  -->
<svg version="1.1" id="Layer_1" xmlns="http://www.w3.org/2000/svg" xmlns:xlink="http://www.w3.org/1999/xlink" x="0px" y="0px"
	 viewBox="0 0 60 30" style="enable-background:new 0 0 60 30;" xml:space="preserve">
<g>
	<path d="M2.56,24.35V5.65h5.08v14.4h4.42v4.29H2.56z"/>
	<path d="M19.5,24.58c-4.37,0-7.12-3.1-7.12-9.61c0-6.65,3.07-9.56,7.17-9.56c4.39,0,7.15,3.04,7.15,9.56
		C26.71,21.65,23.61,24.58,19.5,24.58z M19.56,9.31c-1.48,0-2.01,2.65-2.01,5.64c0,2.99,0.53,5.75,1.96,5.75
		c1.43,0,1.99-2.7,1.99-5.69S20.99,9.31,19.56,9.31z"/>
	<path d="M36.58,24.58c-5.08,0-8.26-3.12-8.26-9.4c0-6.12,3.34-9.77,8.97-9.77c1.64,0,2.94,0.19,4.08,0.71l-1.01,4.29
		c-0.79-0.5-1.62-0.71-2.54-0.71c-3.04,0-4.29,2.33-4.29,5.61c0,2.97,0.77,5.27,2.65,5.27c0.16,0,0.48-0.03,0.58-0.05v-2.17H35.2
		v-3.71h6.3v9.03C40.15,24.24,38.06,24.58,36.58,24.58z"/>
	<path d="M50.24,24.58c-4.37,0-7.12-3.1-7.12-9.61c0-6.65,3.07-9.56,7.17-9.56c4.4,0,7.15,3.04,7.15,9.56
		C57.44,21.65,54.34,24.58,50.24,24.58z M50.29,9.31c-1.48,0-2.01,2.65-2.01,5.64c0,2.99,0.53,5.75,1.96,5.75s1.99-2.7,1.99-5.69
		S51.72,9.31,50.29,9.31z"/>
</g>
</svg>
